<svg id="Group_34185" data-name="Group 34185" xmlns="http://www.w3.org/2000/svg" width="206.807" height="32.727" viewBox="0 0 206.807 32.727">
  <path id="Path_1" data-name="Path 1" d="M477.96,24.063V1.18h6.9V24.063Z" transform="translate(-319.269 -0.785)" fill="#2180bd"/>
  <path id="Path_2" data-name="Path 2" d="M526.794,22.64a19.362,19.362,0,0,1-6.56,1.023,13.185,13.185,0,0,1-6.3-1.394,9.547,9.547,0,0,1-4.047-3.978,12.25,12.25,0,0,1-1.394-5.943A13.106,13.106,0,0,1,510.053,5.9a10.748,10.748,0,0,1,4.423-4.363A13.585,13.585,0,0,1,521.047,0a22.736,22.736,0,0,1,5.747.72V7.089a8.149,8.149,0,0,0-2.281-.886,11.409,11.409,0,0,0-2.679-.315A6,6,0,0,0,517.4,7.5a5.879,5.879,0,0,0-1.617,4.369A5.759,5.759,0,0,0,517.4,16.2a5.936,5.936,0,0,0,4.336,1.584A11.173,11.173,0,0,0,526.8,16.5V22.64h0Z" transform="translate(-339.663 0.003)" fill="#6ab745"/>
  <path id="Path_3" data-name="Path 3" d="M588.32,16.335a6.6,6.6,0,0,1-1.222,3.971,7.269,7.269,0,0,1-3.427,2.523,15.107,15.107,0,0,1-5.3.827,17.18,17.18,0,0,1-6.574-1.215V16.169a13,13,0,0,0,3.177,1.707,9.331,9.331,0,0,0,3.241.647,3.209,3.209,0,0,0,1.76-.408,1.337,1.337,0,0,0,.621-1.192,1.585,1.585,0,0,0-.312-.979,3.08,3.08,0,0,0-.943-.79,16.839,16.839,0,0,0-2.343-1.009q-5.523-2.127-5.525-6.859a6.4,6.4,0,0,1,2.523-5.306A10.648,10.648,0,0,1,580.766-.01c.8,0,1.531.033,2.208.1s1.282.143,1.826.236,1.318.279,2.311.545V6.693a11.878,11.878,0,0,0-5.687-1.57,3.51,3.51,0,0,0-1.857.432,1.311,1.311,0,0,0-.7,1.172,1.451,1.451,0,0,0,.567,1.189,10.633,10.633,0,0,0,2.375,1.222,13.188,13.188,0,0,1,5.04,3.144,5.992,5.992,0,0,1,1.477,4.057h0Z" transform="translate(-381.732 0.01)" fill="#ed1c2c"/>
  <path id="Path_4" data-name="Path 4" d="M384.363,82.534a1.235,1.235,0,0,1-.415.969,1.578,1.578,0,0,1-1.089.369h-.544v1.567h-.485V81.3h1.139a1.506,1.506,0,0,1,1.029.325,1.161,1.161,0,0,1,.365.913Zm-.508.023c0-.548-.322-.823-.97-.823h-.568v1.7h.508a1.166,1.166,0,0,0,.767-.226.808.808,0,0,0,.266-.647h0Zm3.36,1.521h-2.088a1.109,1.109,0,0,0,.266.767.926.926,0,0,0,.7.266,1.45,1.45,0,0,0,.917-.322v.442a1.7,1.7,0,0,1-1.029.285,1.237,1.237,0,0,1-.99-.408,1.674,1.674,0,0,1-.355-1.129,1.836,1.836,0,0,1,.176-.8,1.354,1.354,0,0,1,.492-.561,1.262,1.262,0,0,1,.694-.2,1.105,1.105,0,0,1,.9.375,1.566,1.566,0,0,1,.322,1.046v.249h0Zm-.485-.4a.973.973,0,0,0-.2-.637.677.677,0,0,0-.541-.226.771.771,0,0,0-.564.236,1.1,1.1,0,0,0-.3.627h1.6Zm2.722-.714a.6.6,0,0,0-.361-.1.593.593,0,0,0-.511.3,1.351,1.351,0,0,0-.2.77v1.507h-.475V82.481h.475v.611h.013a1.073,1.073,0,0,1,.3-.485.7.7,0,0,1,.471-.179.8.8,0,0,1,.286.04v.495h0Zm2.089-1.487a.616.616,0,0,0-.315-.076c-.332,0-.495.209-.495.627v.458h.694v.4h-.694v2.557h-.475V82.886h-.5v-.4h.5v-.478a1.019,1.019,0,0,1,.266-.73A.888.888,0,0,1,391.2,81a.879.879,0,0,1,.342.053v.428h0Zm3.078,2.474a1.6,1.6,0,0,1-.4,1.132,1.4,1.4,0,0,1-1.073.428,1.344,1.344,0,0,1-1.046-.418,1.536,1.536,0,0,1-.392-1.1,1.613,1.613,0,0,1,.4-1.159,1.442,1.442,0,0,1,1.105-.425,1.31,1.31,0,0,1,1.03.412,1.62,1.62,0,0,1,.372,1.129Zm-.485.017a1.324,1.324,0,0,0-.245-.857.87.87,0,0,0-.707-.3.9.9,0,0,0-.72.305,1.279,1.279,0,0,0-.266.86,1.171,1.171,0,0,0,.269.83.919.919,0,0,0,.72.3.877.877,0,0,0,.707-.3,1.294,1.294,0,0,0,.246-.847h0Zm2.766-1a.6.6,0,0,0-.362-.1.593.593,0,0,0-.511.3,1.381,1.381,0,0,0-.2.77v1.507h-.475V82.481h.475v.611h.013a1.048,1.048,0,0,1,.306-.485.7.7,0,0,1,.471-.179.8.8,0,0,1,.286.04v.495h0Zm4.7,2.477h-.474v-1.7a1.266,1.266,0,0,0-.153-.714.583.583,0,0,0-.511-.216.631.631,0,0,0-.515.276,1.051,1.051,0,0,0-.212.661v1.69h-.475V83.679c0-.581-.226-.87-.674-.87a.621.621,0,0,0-.515.262,1.076,1.076,0,0,0-.2.677v1.69H397.4V82.481h.475v.468h.014a1,1,0,0,1,.917-.541.883.883,0,0,1,.521.163.855.855,0,0,1,.322.452,1.058,1.058,0,0,1,.983-.614q.976,0,.976,1.209v1.823Z" transform="translate(-255.056 -54.103)"/>
  <path id="Path_5" data-name="Path 5" d="M448.915,85.553h-.485V81.409h.485v4.144Zm3.48,0h-.475v-1.69c0-.628-.229-.94-.687-.94a.742.742,0,0,0-.585.266.981.981,0,0,0-.236.674v1.69h-.475V82.594h.475v.491h.013a1.063,1.063,0,0,1,.973-.561.9.9,0,0,1,.744.319,1.412,1.412,0,0,1,.255.9v1.81h0Zm2.51-.79a.769.769,0,0,1-.3.624,1.21,1.21,0,0,1-.787.239,1.456,1.456,0,0,1-.734-.179v-.508a1.185,1.185,0,0,0,.767.282c.375,0,.564-.139.564-.415a.357.357,0,0,0-.11-.272,2.077,2.077,0,0,0-.5-.286,1.5,1.5,0,0,1-.554-.359.778.778,0,0,1-.163-.511.766.766,0,0,1,.3-.611,1.129,1.129,0,0,1,.747-.246,1.4,1.4,0,0,1,.631.139v.475a1.113,1.113,0,0,0-.671-.213.592.592,0,0,0-.378.116.362.362,0,0,0-.142.3.4.4,0,0,0,.109.3,1.665,1.665,0,0,0,.455.249,1.586,1.586,0,0,1,.591.375.734.734,0,0,1,.169.495h0Zm1.248-3.231a.291.291,0,0,1-.093.222.307.307,0,0,1-.219.086.314.314,0,0,1-.219-.086.3.3,0,0,1-.09-.226.311.311,0,0,1,.086-.216.321.321,0,0,1,.445,0,.3.3,0,0,1,.09.216h0Zm-.083,4.021h-.475V82.594h.475v2.958Zm3.466-.236q0,1.629-1.56,1.627a2.148,2.148,0,0,1-.96-.206v-.475a1.941,1.941,0,0,0,.953.276q1.1,0,1.1-1.159v-.325h-.013a1.107,1.107,0,0,1-1.016.568,1.143,1.143,0,0,1-1.076-.691,1.8,1.8,0,0,1-.152-.764,1.822,1.822,0,0,1,.369-1.2,1.218,1.218,0,0,1,.986-.445.95.95,0,0,1,.886.478h.014v-.408h.475v2.723h0Zm-.475-1.1v-.438a.824.824,0,0,0-.246-.6.793.793,0,0,0-.587-.249.82.82,0,0,0-.691.322,1.421,1.421,0,0,0-.249.893,1.211,1.211,0,0,0,.239.784.767.767,0,0,0,.631.3.824.824,0,0,0,.647-.282,1.034,1.034,0,0,0,.252-.724h0Zm3.888,1.338h-.475V83.846c0-.614-.229-.923-.687-.923a.742.742,0,0,0-.588.269,1,1,0,0,0-.233.681v1.677h-.475V81.17h.475v1.912h.014a1.08,1.08,0,0,1,.973-.564q1,0,1,1.209v1.823h0Zm2.268-.03a.912.912,0,0,1-.445.1c-.515,0-.774-.292-.774-.873V83h-.508v-.4H464v-.724l.475-.153v.876h.747V83h-.747v1.67a.672.672,0,0,0,.1.425.411.411,0,0,0,.339.126.508.508,0,0,0,.306-.1v.405h0Z" transform="translate(-299.544 -54.217)" fill="#2180bd"/>
  <path id="Path_6" data-name="Path 6" d="M507.5,85.39a2.444,2.444,0,0,1-1.142.242,1.982,1.982,0,0,1-1.02-.259,1.761,1.761,0,0,1-.687-.73,2.358,2.358,0,0,1-.242-1.079,2.458,2.458,0,0,1,.269-1.142,1.975,1.975,0,0,1,.754-.794,2.115,2.115,0,0,1,1.089-.282,2.418,2.418,0,0,1,.976.169v.515a1.973,1.973,0,0,0-.983-.249,1.614,1.614,0,0,0-.833.216,1.435,1.435,0,0,0-.565.618,2.049,2.049,0,0,0-.2.92,1.91,1.91,0,0,0,.186.87,1.375,1.375,0,0,0,.531.584,1.509,1.509,0,0,0,.787.2,2.041,2.041,0,0,0,1.076-.276v.475h0Zm2.879.169H509.9V85.1h-.013a.991.991,0,0,1-.91.535.976.976,0,0,1-.684-.232.8.8,0,0,1-.259-.624q0-.827.976-.966l.886-.123c0-.5-.2-.75-.611-.75a1.463,1.463,0,0,0-.966.362v-.485a1.405,1.405,0,0,1,.445-.189,2.061,2.061,0,0,1,.561-.09c.694,0,1.043.369,1.043,1.106v1.922h0Zm-.475-1.5-.717.1a1.033,1.033,0,0,0-.515.176.49.49,0,0,0-.149.4.445.445,0,0,0,.159.359.61.61,0,0,0,.408.133.754.754,0,0,0,.581-.249.886.886,0,0,0,.229-.621v-.3h0Zm4.09-.07a1.812,1.812,0,0,1-.368,1.2,1.212,1.212,0,0,1-.983.445.952.952,0,0,1-.886-.5h-.013v1.786h-.475V82.6h.475v.521h.013a1.117,1.117,0,0,1,1.023-.591,1.1,1.1,0,0,1,.883.392,1.615,1.615,0,0,1,.329,1.069h0Zm-.485-.007a1.218,1.218,0,0,0-.225-.767.752.752,0,0,0-.621-.286.867.867,0,0,0-.661.282,1.048,1.048,0,0,0-.256.724v.415a.859.859,0,0,0,.246.624.8.8,0,0,0,.6.252.788.788,0,0,0,.671-.329,1.5,1.5,0,0,0,.246-.913h0Zm3.314,1.574h-.474V85.1h-.013a.991.991,0,0,1-.91.535.977.977,0,0,1-.684-.232.8.8,0,0,1-.259-.624q0-.827.976-.966l.887-.123c0-.5-.2-.75-.611-.75a1.464,1.464,0,0,0-.966.362v-.485a1.4,1.4,0,0,1,.445-.189,2.063,2.063,0,0,1,.561-.09c.694,0,1.043.369,1.043,1.106v1.922h0Zm-.474-1.5-.717.1a1.033,1.033,0,0,0-.514.176.49.49,0,0,0-.149.4.444.444,0,0,0,.159.359.61.61,0,0,0,.408.133.754.754,0,0,0,.581-.249.885.885,0,0,0,.229-.621v-.3h0Zm4.09-.07a1.829,1.829,0,0,1-.365,1.189,1.2,1.2,0,0,1-.986.452.981.981,0,0,1-.887-.495h-.013v.425h-.475V81.183h.475v1.942h.013a1.117,1.117,0,0,1,1.022-.591,1.1,1.1,0,0,1,.883.392A1.614,1.614,0,0,1,520.436,84h0Zm-.488-.007a1.218,1.218,0,0,0-.226-.767.751.751,0,0,0-.621-.286.869.869,0,0,0-.661.282,1.048,1.048,0,0,0-.256.724v.415a.859.859,0,0,0,.246.624.806.806,0,0,0,.6.252.789.789,0,0,0,.671-.329,1.509,1.509,0,0,0,.245-.913h0Zm1.776-2.447a.291.291,0,0,1-.092.222.307.307,0,0,1-.22.086.314.314,0,0,1-.219-.086.3.3,0,0,1-.089-.226.312.312,0,0,1,.086-.216.32.32,0,0,1,.445,0,.294.294,0,0,1,.09.216h0Zm-.083,4.021h-.475V82.6h.475v2.958Zm1.434,0H522.6V81.18h.474v4.379Zm1.514-4.021a.289.289,0,0,1-.093.222.3.3,0,0,1-.219.086.316.316,0,0,1-.219-.086.3.3,0,0,1-.09-.226.312.312,0,0,1,.086-.216.321.321,0,0,1,.445,0,.294.294,0,0,1,.09.216h0Zm-.08,4.021h-.475V82.6h.475v2.958Zm2.331-.03a.91.91,0,0,1-.445.1c-.515,0-.774-.292-.774-.873V83h-.508v-.4h.508v-.724l.475-.153V82.6h.747V83H526.1v1.67a.668.668,0,0,0,.1.425.409.409,0,0,0,.338.126.507.507,0,0,0,.305-.1v.405h0Zm2.988-2.928-1.361,3.433q-.364.916-1.023.916a1.329,1.329,0,0,1-.309-.033v-.425a.892.892,0,0,0,.276.053.585.585,0,0,0,.541-.425l.239-.564L527.04,82.6h.528l.8,2.278.06.226h.016a1.66,1.66,0,0,1,.06-.216l.84-2.284h.491Z" transform="translate(-336.938 -54.224)" fill="#6ab745"/>
  <path id="Path_7" data-name="Path 7" d="M588.581,84.513a.991.991,0,0,1-.372.82,1.552,1.552,0,0,1-1.006.3,2.123,2.123,0,0,1-.521-.076,1.32,1.32,0,0,1-.412-.159v-.574a1.38,1.38,0,0,0,.465.266,1.588,1.588,0,0,0,.537.106c.531,0,.8-.206.8-.621a.651.651,0,0,0-.168-.448,3.287,3.287,0,0,0-.7-.488,2.454,2.454,0,0,1-.716-.548,1.06,1.06,0,0,1,.162-1.431,1.429,1.429,0,0,1,.95-.309,1.632,1.632,0,0,1,.813.149v.544a1.321,1.321,0,0,0-.84-.256.864.864,0,0,0-.561.173.547.547,0,0,0-.219.455.718.718,0,0,0,.066.329.777.777,0,0,0,.22.246,4.351,4.351,0,0,0,.521.325,2.766,2.766,0,0,1,.77.578.962.962,0,0,1,.219.624h0Zm2.855,1.046h-.475V85.1h-.013a.991.991,0,0,1-.91.535.978.978,0,0,1-.684-.232.8.8,0,0,1-.258-.624q0-.827.976-.966l.886-.123c0-.5-.2-.75-.611-.75a1.462,1.462,0,0,0-.966.362v-.485a1.405,1.405,0,0,1,.445-.189,2.054,2.054,0,0,1,.561-.09q1.042,0,1.043,1.106v1.922h0Zm-.475-1.5-.717.1a1.035,1.035,0,0,0-.515.176.492.492,0,0,0-.149.4.447.447,0,0,0,.159.359.61.61,0,0,0,.408.133.753.753,0,0,0,.581-.249.885.885,0,0,0,.229-.621v-.3h0Zm1.84,1.5h-.475V81.18h.475v4.379Zm3.317-1.361h-2.089a1.106,1.106,0,0,0,.266.767.914.914,0,0,0,.7.266,1.45,1.45,0,0,0,.916-.322v.442a1.7,1.7,0,0,1-1.029.285,1.237,1.237,0,0,1-.99-.408,1.671,1.671,0,0,1-.355-1.129,1.842,1.842,0,0,1,.175-.8,1.357,1.357,0,0,1,.492-.561,1.265,1.265,0,0,1,.694-.2,1.108,1.108,0,0,1,.9.375,1.566,1.566,0,0,1,.322,1.046V84.2h0Zm-.485-.4a.972.972,0,0,0-.2-.638.676.676,0,0,0-.541-.226.773.773,0,0,0-.564.236,1.105,1.105,0,0,0-.3.628h1.6Zm2.792.973a.771.771,0,0,1-.295.624,1.212,1.212,0,0,1-.787.239,1.455,1.455,0,0,1-.734-.179v-.508a1.185,1.185,0,0,0,.767.282c.375,0,.565-.139.565-.415a.358.358,0,0,0-.11-.272,2.079,2.079,0,0,0-.5-.286,1.5,1.5,0,0,1-.554-.359.781.781,0,0,1-.162-.511.768.768,0,0,1,.295-.611,1.131,1.131,0,0,1,.747-.246,1.4,1.4,0,0,1,.631.139v.475a1.114,1.114,0,0,0-.671-.212.593.593,0,0,0-.379.116.362.362,0,0,0-.143.3.4.4,0,0,0,.11.3,1.654,1.654,0,0,0,.455.249,1.591,1.591,0,0,1,.591.375.733.733,0,0,1,.169.495h0Z" transform="translate(-391.618 -54.224)" fill="#ed1c2c"/>
  <path id="Path_8" data-name="Path 8" d="M122.134,10.042c0-.023-.007-.043-.007-.066a.621.621,0,0,1,1.242,0,.611.611,0,0,1-.037.206l9.227,6.418a.614.614,0,0,1,.916.139l1.786-.561a6.162,6.162,0,0,0-.71-.916,5.511,5.511,0,0,0-2.424-1.448v-.066a7.57,7.57,0,0,0,3.964-2.314,5.967,5.967,0,0,0,1.335-3.954,5.35,5.35,0,0,0-2.288-4.718q-2.3-1.569-7.092-1.57H118.89V11.34l3.241-1.295Zm3.655-4.08h1.418a3.068,3.068,0,0,1,2.195.671,2.4,2.4,0,0,1,.7,1.819,2.6,2.6,0,0,1-.843,1.962,3.164,3.164,0,0,1-2.228.78h-1.242V5.964Z" transform="translate(-79.417 -0.792)"/>
  <path id="Path_9" data-name="Path 9" d="M66.11,17.462a.626.626,0,0,1,.375-.129.612.612,0,0,1,.491.246l4.479-1.793V15.3h1.215l5.684-2.274V9.905h-6.9V6.572h7.348V1.18H64.56V16.29l1.547,1.169Z" transform="translate(-43.125 -0.785)"/>
  <path id="Path_10" data-name="Path 10" d="M96.478,37.94,91.69,39.856h4.788Z" transform="translate(-61.247 -25.34)"/>
  <path id="Path_11" data-name="Path 11" d="M387.793,10.928q-.055-1.673-.17-4.356h.2c.4,2.254.654,3.553.747,3.895l.02.08,2.364-1.135a.621.621,0,1,1,1.232-.11.755.755,0,0,1-.02.153l2.4,1.371L392.129,1.18H381.8V13.81Z" transform="translate(-255.036 -0.785)"/>
  <path id="Path_12" data-name="Path 12" d="M197.574,10.692h-4.625V6.575h7.45V1.18H186.05V14.308Z" transform="translate(-124.278 -0.785)"/>
  <path id="Path_13" data-name="Path 13" d="M318.564,12.857v-.013a.621.621,0,0,1,1.242,0,.66.66,0,0,1-.01.113l8.911,4.356a.615.615,0,0,1,.93,0l1.607-.774a6.576,6.576,0,0,0-.943-1.3,5.511,5.511,0,0,0-2.424-1.448v-.066a7.57,7.57,0,0,0,3.964-2.314,5.967,5.967,0,0,0,1.334-3.954,5.351,5.351,0,0,0-2.287-4.718q-2.3-1.569-7.092-1.57H314.64V14.029l3.924-1.179Zm2.975-6.909h1.418a3.069,3.069,0,0,1,2.195.671,2.4,2.4,0,0,1,.7,1.819,2.6,2.6,0,0,1-.843,1.962,3.164,3.164,0,0,1-2.228.78h-1.241V5.951Z" transform="translate(-210.174 -0.778)"/>
  <path id="Path_14" data-name="Path 14" d="M241.7,6.757v-.02a.623.623,0,0,1,1.245,0,.609.609,0,0,1-.026.173l1.773,1.1a4.675,4.675,0,0,1,.345-.561,3.762,3.762,0,0,1,3.2-1.564,3.387,3.387,0,0,1,2.965,1.63,7.927,7.927,0,0,1,1.086,4.446c0,.256-.013.5-.027.737l3.619,2.241a.618.618,0,0,1,.946.126l2.553-.767a14.236,14.236,0,0,0,.219-2.533,13.127,13.127,0,0,0-1.411-6.136,9.976,9.976,0,0,0-4-4.167A11.736,11.736,0,0,0,248.306,0a12.35,12.35,0,0,0-6.1,1.524,10.542,10.542,0,0,0-4.163,4.316A12.288,12.288,0,0,0,237.1,8.2l4.6-1.444Z" transform="translate(-158.379 0.003)"/>
  <path id="Path_15" data-name="Path 15" d="M331.407,40.989l-1.624.78a.6.6,0,0,1,.01.11.621.621,0,0,1-1.242,0,.658.658,0,0,1,.01-.113L319.65,37.41a.616.616,0,0,1-.989-.08l-4.021,1.205V48.21h6.9V40.169h.266a2.352,2.352,0,0,1,1.716.827A6.12,6.12,0,0,1,324.8,43.28l1.707,4.93h7.773l-2.251-5.824a13.213,13.213,0,0,0-.631-1.395Z" transform="translate(-210.174 -24.932)"/>
  <path id="Path_16" data-name="Path 16" d="M381.8,34.529v9.881h6.046V33.622c0-.4-.013-1.059-.043-1.982Z" transform="translate(-255.036 -21.132)"/>
  <path id="Path_17" data-name="Path 17" d="M429.553,1.18,426.96,12.1l2.1,1.2a.61.61,0,0,1,.438-.179.635.635,0,0,1,.252.053l2.361-2.865q.269-1.036.78-3.732h.189l-.05,1.052c-.03.568-.05,1.112-.066,1.643L438.3,2.78a.619.619,0,1,1,.564.266.6.6,0,0,1-.309-.053l-5.618,6.823c-.017.594-.023,1.165-.023,1.71v12.54h6.8V1.18Z" transform="translate(-285.202 -0.785)"/>
  <path id="Path_18" data-name="Path 18" d="M255.823,29.614v.013a.621.621,0,0,1-1.242,0,.6.6,0,0,1,.027-.173L251.128,27.3a7.22,7.22,0,0,1-.468,2.005,4.49,4.49,0,0,1-1.477,2.009,3.554,3.554,0,0,1-2.151.7,3.631,3.631,0,0,1-3.1-1.564,7.246,7.246,0,0,1-1.139-4.353,8.6,8.6,0,0,1,.644-3.559l-1.8-1.112a.619.619,0,0,1-.943-.12l-4.8,1.507a14.218,14.218,0,0,0-.432,3.543,12.156,12.156,0,0,0,1.464,5.976,10.37,10.37,0,0,0,4.107,4.1,12.518,12.518,0,0,0,11.83-.05,10.543,10.543,0,0,0,4.147-4.227A11.865,11.865,0,0,0,258.2,28.9l-2.381.714Z" transform="translate(-157.283 -14.231)"/>
  <path id="Path_19" data-name="Path 19" d="M13.659,11.213a.7.7,0,0,1-.02-.146.621.621,0,0,1,1.242,0,.653.653,0,0,1-.043.229l2.474,1.869c.066-.093.136-.186.2-.282A7.473,7.473,0,0,0,18.7,8.717q0-3.875-2.244-5.711T9.379,1.17H0V18.813l13.659-7.6ZM6.9,6.11H8.2a3.5,3.5,0,0,1,2.391.72,2.7,2.7,0,0,1,.81,2.125q0,2.809-2.965,2.812H6.893V6.114Z" transform="translate(0 -0.778)"/>
  <path id="Path_20" data-name="Path 20" d="M413.679,30.535a.62.62,0,1,1-1.129.355.752.752,0,0,1,.02-.153l-2.012-1.152L410.3,30.7q-.384,1.977-.555,3.433h-.1c-.033-.432-.11-1.029-.229-1.813a15.419,15.419,0,0,0-.3-1.554l-.591-2.341-2.676-1.531a.62.62,0,0,1-.9-.033l-2.423,1.165,3.42,13.188h6.484L415.608,28.2l-1.922,2.334Z" transform="translate(-268.877 -17.939)"/>
  <path id="Path_21" data-name="Path 21" d="M14.639,32.356a.626.626,0,0,1-.375.129.612.612,0,0,1-.442-.186L0,39.993V44.85H6.9V37.5H9a12.291,12.291,0,0,0,5.12-1,7.915,7.915,0,0,0,2.995-2.271Z" transform="translate(0 -21.573)"/>
  <path id="Path_22" data-name="Path 22" d="M71.466,46.25,67.11,47.993c0,.023.007.043.007.066a.621.621,0,1,1-1.242,0,.653.653,0,0,1,.043-.229L64.57,46.811v7.354H79.345V48.773H71.466Z" transform="translate(-43.132 -30.891)"/>
  <path id="Path_23" data-name="Path 23" d="M135.444,34.9l-1.869.588v.02a.621.621,0,0,1-1.242,0,.61.61,0,0,1,.037-.206l-9.227-6.418a.615.615,0,0,1-.4.146.622.622,0,0,1-.495-.246l-3.363,1.345V42.5h6.9V34.457h.266a2.353,2.353,0,0,1,1.717.827,6.129,6.129,0,0,1,1.285,2.284l1.707,4.93h7.772l-2.251-5.824a12.033,12.033,0,0,0-.843-1.776Z" transform="translate(-79.417 -19.221)"/>
  <path id="Path_24" data-name="Path 24" d="M186.05,33.794V43.2h6.9V35.222h6.8V29.83H198.68Z" transform="translate(-124.278 -19.923)"/>
</svg>
